# xmcd
#
# Track frame offsets: 
#        150
#        16037
#        30382
#        49832
#        68755
#        83410
#        112462
#        126585
#        145020
#        167577
#
# Disc length: 2548 seconds
#
# Revision: 3
# Processed by: cddbd v1.5.2PL0 Copyright (c) Steve Scherf et al.
# Submitted via: ExactAudioCopy v0.99pb5
#
DISCID=7e09f20a
DTITLE=Travis Tritt - Ten Feet Tall and Bulletproof
DYEAR=1994
DGENRE=Country
TTITLE0=Ten Feet Tall and Bulletproof
TTITLE1=Walkin' All Over My Heart
TTITLE2=Foolish Pride
TTITLE3=Outlaws Like Us
TTITLE4=Hard Times and Misery
TTITLE5=Tell Me I Was Dreaming
TTITLE6=Wishful Thinking
TTITLE7=Between an Old Memory and Me
TTITLE8=No Vacation From the Blues
TTITLE9=Southern Justice
EXTD=
EXTT0=
EXTT1=
EXTT2=
EXTT3=
EXTT4=
EXTT5=
EXTT6=
EXTT7=
EXTT8=
EXTT9=
PLAYORDER=
